<svg aria-hidden="true" style="position: absolute; width: 0; height: 0; overflow: hidden;" version="1.1"
    xmlns="http://www.w3.org/2000/svg"
    xmlns:xlink="http://www.w3.org/1999/xlink">
    <defs>
        <symbol id="icon-arrow" viewBox="0 0 32 32">
            <path d="M31.805 15.529l-10-10c-0.121-0.121-0.287-0.195-0.471-0.195s-0.351 0.075-0.471 0.195v0c-0.121 0.121-0.195 0.287-0.195 0.471s0.075 0.351 0.195 0.471v0l8.862 8.862h-29.057c-0 0-0 0-0 0-0.368 0-0.666 0.298-0.666 0.666 0 0 0 0 0 0v-0c0 0.369 0.298 0.667 0.667 0.667h29.057l-8.862 8.862c-0.121 0.121-0.195 0.287-0.195 0.471s0.075 0.351 0.195 0.471v0c0.13 0.13 0.301 0.195 0.471 0.195 0 0 0 0 0.001 0 0.184 0 0.35-0.075 0.471-0.195v0l10-10c0.121-0.121 0.195-0.287 0.195-0.471s-0.075-0.351-0.195-0.471v0z"></path>
        </symbol>
        <symbol id="icon-burger" viewBox="0 0 32 32">
            <path d="M4 24h24v-2.667h-24v2.667zM4 17.333h24v-2.667h-24v2.667zM4 8v2.667h24v-2.667h-24z"></path>
        </symbol>
        <symbol id="icon-close" viewBox="0 0 32 32">
            <path d="M25.333 8.547l-1.88-1.88-7.453 7.453-7.453-7.453-1.88 1.88 7.453 7.453-7.453 7.453 1.88 1.88 7.453-7.453 7.453 7.453 1.88-1.88-7.453-7.453 7.453-7.453z"></path>
        </symbol>
        <symbol id="icon-empty-favourite" viewBox="0 0 32 32">
            <path d="M16 30.22c-0.455 0-0.895-0.165-1.237-0.465-0.746-0.661-1.93-1.684-3.121-2.699l-0.523-0.435c-3.225-2.748-6.009-5.12-7.946-7.457-2.165-2.613-3.173-5.090-3.173-7.797 0-2.629 0.901-5.055 2.539-6.83 1.657-1.797 3.93-2.786 6.4-2.786 1.847 0 3.539 0.583 5.028 1.735 0.778 0.612 1.449 1.311 2.012 2.092l0.021 0.030c0.584-0.812 1.255-1.511 2.011-2.106l0.022-0.017c1.489-1.152 3.181-1.735 5.027-1.735 2.471 0 4.745 0.989 6.401 2.786 1.637 1.775 2.539 4.199 2.539 6.83 0 2.707-1.008 5.184-3.173 7.797-1.937 2.336-4.721 4.709-7.945 7.456-1.102 0.939-2.35 2.002-3.646 3.136-0.328 0.288-0.761 0.463-1.234 0.463-0.001 0-0.001 0-0.002 0h0zM8.939 3.625c-1.941 0-3.725 0.774-5.022 2.182-1.317 1.428-2.043 3.403-2.043 5.559 0 2.276 0.846 4.313 2.742 6.601 1.835 2.212 4.56 4.537 7.717 7.227l0.006 0.005c1.104 0.941 2.355 2.006 3.657 3.146 0.667-0.591 1.861-1.621 3.061-2.645l0.608-0.506c3.157-2.691 5.884-5.013 7.717-7.227 1.897-2.288 2.741-4.324 2.741-6.601 0-2.157-0.725-4.131-2.042-5.559-1.297-1.408-3.081-2.182-5.023-2.182-1.422 0-2.727 0.452-3.881 1.344-1.028 0.795-1.744 1.799-2.163 2.502-0.208 0.348-0.583 0.578-1.011 0.578-0.002 0-0.004 0-0.006 0h0c-0.002 0-0.003 0-0.005 0-0.429 0-0.803-0.23-1.008-0.573l-0.003-0.005c-0.419-0.703-1.135-1.708-2.163-2.502-1.152-0.892-2.459-1.344-3.881-1.344z"></path>
        </symbol>
        <symbol id="icon-favourite" viewBox="0 0 32 32">
            <path d="M16 30.72l-2.24-2.24c-8.32-7.36-13.76-12.32-13.76-18.4-0-4.96 3.84-8.8 8.8-8.8 2.72 0 5.44 1.28 7.2 3.36 1.76-2.080 4.48-3.36 7.2-3.36 4.96 0 8.8 3.84 8.8 8.8 0 6.080-5.44 11.040-13.76 18.4l-2.24 2.24z"></path>
        </symbol>
        <symbol id="icon-logo" viewBox="0 0 147 32">
            <path fill="none" stroke="#121d2e" style="stroke: var(--color1, #121d2e)" stroke-linejoin="miter" stroke-linecap="butt" stroke-miterlimit="4" stroke-width="1" d="M147.429 0.49h-147.429v31.086h147.429v-41.086z"></path>
            <path fill="#121d2e" style="fill: var(--color1, #121d2e)" d="M69.613 25.247h5.265v-2.304h-2.234v-13.061h2.234v-2.303h-5.265v17.669zM80.551 21.584h3.147v-10.72h4.352v-2.491h-11.851v2.491h4.352v10.72zM99.28 16.544c0.001-0.035 0.001-0.076 0.001-0.117 0-0.981-0.263-1.901-0.724-2.692l0.014 0.026c-0.468-0.787-1.132-1.413-1.926-1.823l-0.027-0.012c-0.812-0.405-1.768-0.641-2.779-0.641-0.013 0-0.026 0-0.039 0h0.002c-1.025 0.005-1.991 0.252-2.845 0.688l0.036-0.017c-0.833 0.434-1.511 1.067-1.988 1.837l-0.012 0.022c-0.459 0.748-0.731 1.654-0.731 2.624 0 0.023 0 0.045 0 0.068l-0-0.003c-0.016 0.949 0.24 1.883 0.738 2.699 0.512 0.804 1.225 1.44 2.068 1.845l0.030 0.013c0.974 0.461 2.046 0.689 3.128 0.666 0.8 0.053 1.6-0.066 2.346-0.351 0.77-0.297 1.427-0.736 1.966-1.29l0.001-0.001-1.611-1.698c-0.328 0.315-0.719 0.568-1.152 0.738l-0.024 0.008c-0.409 0.15-0.882 0.236-1.374 0.236-0.026 0-0.052-0-0.077-0.001l0.004 0c-0.036 0.001-0.078 0.002-0.121 0.002-0.692 0-1.336-0.205-1.874-0.559l0.013 0.008c-0.509-0.343-0.874-0.865-1.007-1.474l-0.003-0.016h7.909c0.038-0.491 0.057-0.754 0.057-0.792l0.001 0.009zM93.859 13.506c0.024-0.001 0.053-0.001 0.081-0.001 0.621 0 1.191 0.217 1.638 0.58l-0.005-0.004c0.471 0.392 0.776 0.941 0.855 1.538h-5.153c0.074-0.602 0.379-1.154 0.855-1.547 0.447-0.354 1.020-0.567 1.642-0.567 0.031 0 0.061 0.001 0.092 0.002l-0.004-0zM105.402 21.735c0.048 0.001 0.105 0.002 0.163 0.002 0.891 0 1.746-0.15 2.544-0.425l-0.055 0.016c0.682-0.225 1.258-0.62 1.695-1.135l0.004-0.005c0.385-0.48 0.591-1.072 0.583-1.68 0.003-0.043 0.004-0.093 0.004-0.143 0-0.613-0.23-1.173-0.609-1.597l0.002 0.002c-0.379-0.396-0.857-0.693-1.395-0.851l-0.022-0.006c-0.563-0.164-1.273-0.319-1.996-0.431l-0.103-0.013c-0.629-0.078-1.194-0.204-1.738-0.377l0.067 0.019c-0.155-0.038-0.287-0.125-0.381-0.242l-0.001-0.001c-0.089-0.112-0.143-0.255-0.143-0.411 0-0.004 0-0.008 0-0.012v0.001c0.008-0.153 0.060-0.293 0.143-0.409l-0.002 0.002c0.087-0.12 0.203-0.213 0.339-0.27l0.005-0.002c0.375-0.17 0.812-0.269 1.273-0.269 0.065 0 0.129 0.002 0.193 0.006l-0.009-0c0.016-0 0.035-0 0.054-0 1.084 0 2.103 0.28 2.989 0.771l-0.032-0.016 1.010-2.095c-0.525-0.291-1.133-0.517-1.777-0.645l-0.040-0.007c-0.663-0.149-1.424-0.235-2.206-0.235h-0c-0.047-0.001-0.102-0.002-0.157-0.002-0.873 0-1.71 0.153-2.487 0.433l0.051-0.016c-0.674 0.233-1.239 0.634-1.666 1.154l-0.005 0.006c-0.379 0.493-0.581 1.094-0.571 1.709-0.003 0.048-0.005 0.105-0.005 0.162 0 0.622 0.234 1.188 0.619 1.617l-0.002-0.002c0.395 0.408 0.895 0.707 1.447 0.869 0.585 0.171 1.301 0.323 2.034 0.425l0.084 0.010c0.549 0.050 1.088 0.158 1.613 0.32 0.15 0.034 0.278 0.113 0.372 0.223l0.001 0.001c0.095 0.113 0.149 0.254 0.152 0.399 0 0.617-0.64 0.926-1.923 0.926-0.693-0.004-1.361-0.104-1.994-0.287l0.051 0.013c-0.641-0.17-1.204-0.412-1.719-0.725l0.029 0.016-1.010 2.11c0.571 0.347 1.233 0.62 1.937 0.783l0.046 0.009c0.76 0.198 1.633 0.312 2.533 0.312 0.004 0 0.009 0 0.013 0h-0.001v-0.001zM118.711 19.017c-0.322 0.236-0.727 0.378-1.164 0.378-0.021 0-0.042-0-0.063-0.001l0.003 0c-0.023 0.002-0.051 0.002-0.078 0.002-0.343 0-0.654-0.134-0.885-0.352l0.001 0.001c-0.214-0.24-0.345-0.559-0.345-0.908 0-0.029 0.001-0.058 0.003-0.087l-0 0.004v-4.131h2.603v-2.266h-2.602v-2.473h-3.031v2.472h-1.609v2.267h1.613v4.171c-0.037 0.496 0.035 0.994 0.21 1.461 0.175 0.469 0.45 0.894 0.806 1.251 0.708 0.581 1.623 0.933 2.621 0.933 0.093 0 0.186-0.003 0.277-0.009l-0.012 0.001c0.463 0.002 0.923-0.053 1.371-0.161 0.417-0.096 0.785-0.262 1.109-0.487l-0.010 0.007-0.816-2.073zM120.944 23.282h9.714v-1.698h-9.714v1.698zM137.417 25.248v-17.67h-5.246v2.303h2.215v13.061h-2.215v2.304h5.246zM0 0.49h52.893l8.816 16.165-8.816 14.921h-52.893v-31.086z"></path>
            <path fill="#fff" style="fill: var(--color2, #fff)" d="M18.357 8.373h-5.886v13.211h3.146v-3.643h2.743c0.055 0.001 0.119 0.002 0.184 0.002 1.065 0 2.081-0.212 3.007-0.596l-0.052 0.019c0.847-0.353 1.543-0.927 2.036-1.651l0.010-0.016c0.451-0.688 0.719-1.531 0.719-2.437 0-0.035-0-0.071-0.001-0.106l0 0.005c0.001-0.033 0.001-0.071 0.001-0.11 0-0.905-0.269-1.748-0.731-2.452l0.010 0.017c-0.507-0.736-1.203-1.308-2.019-1.654l-0.030-0.011c-0.872-0.369-1.886-0.583-2.949-0.583-0.066 0-0.132 0.001-0.198 0.002l0.010-0zM18.182 15.449h-2.565v-4.585h2.565c0.071-0.005 0.153-0.008 0.236-0.008 0.72 0 1.388 0.226 1.936 0.61l-0.011-0.007c0.25 0.21 0.446 0.474 0.574 0.77 0.129 0.297 0.185 0.617 0.165 0.937 0.019 0.318-0.038 0.635-0.166 0.929-0.135 0.303-0.328 0.557-0.568 0.759l-0.003 0.003c-0.537 0.377-1.205 0.602-1.925 0.602-0.082 0-0.163-0.003-0.244-0.009l0.011 0.001h-0.005zM29.761 12.769v-1.339h-2.895v10.154h3.031v-4.795c-0.006-0.066-0.009-0.142-0.009-0.219 0-0.328 0.057-0.643 0.161-0.935l-0.006 0.019c0.127-0.365 0.328-0.701 0.592-0.987 0.274-0.245 0.595-0.434 0.946-0.555 0.35-0.122 0.722-0.174 1.094-0.153 0.117 0 0.343 0.011 0.68 0.038v-2.717c-0.728-0.014-1.451 0.114-2.126 0.377-0.587 0.229-1.095 0.614-1.467 1.111v0.003zM40.618 21.735c0.035 0.001 0.076 0.001 0.117 0.001 1.033 0 2.009-0.247 2.872-0.684l-0.036 0.017c0.848-0.431 1.539-1.064 2.028-1.837l0.012-0.021c0.499-0.816 0.754-1.751 0.738-2.699 0-0.025 0.001-0.055 0.001-0.085 0-0.967-0.274-1.869-0.748-2.634l0.012 0.021c-0.501-0.795-1.192-1.428-2.011-1.846l-0.029-0.013c-0.864-0.423-1.88-0.67-2.954-0.67-0.001 0-0.003 0-0.004 0h0c-1.025 0-2.038 0.229-2.958 0.671-0.853 0.429-1.548 1.062-2.038 1.837l-0.012 0.021c-0.464 0.745-0.739 1.65-0.739 2.619 0 0.028 0 0.056 0.001 0.084l-0-0.004c-0.016 0.949 0.24 1.883 0.738 2.699 0.503 0.796 1.198 1.43 2.021 1.845l0.029 0.013c0.831 0.421 1.811 0.667 2.849 0.667 0.040 0 0.079-0 0.119-0.001l-0.006 0h-0.003zM40.618 19.319c-0.023 0.001-0.050 0.001-0.078 0.001-0.349 0-0.681-0.068-0.986-0.191l0.018 0.006c-0.343-0.138-0.635-0.335-0.877-0.58l-0-0c-0.251-0.266-0.451-0.582-0.583-0.932l-0.006-0.019c-0.109-0.284-0.172-0.613-0.172-0.957 0-0.049 0.001-0.098 0.004-0.147l-0 0.007c-0.002-0.042-0.004-0.091-0.004-0.14 0-0.344 0.063-0.673 0.178-0.976l-0.006 0.019c0.13-0.351 0.331-0.674 0.59-0.95 0.243-0.246 0.536-0.443 0.862-0.574l0.017-0.006c0.331-0.131 0.687-0.194 1.045-0.183 0.357-0.011 0.712 0.050 1.041 0.183 0.331 0.131 0.629 0.329 0.873 0.581 0.465 0.499 0.751 1.17 0.751 1.908 0 0.049-0.001 0.098-0.004 0.147l0-0.007c0.002 0.042 0.004 0.091 0.004 0.141 0 0.738-0.286 1.41-0.752 1.91l0.002-0.002c-0.246 0.251-0.543 0.449-0.873 0.582-0.329 0.131-0.685 0.194-1.040 0.183v-0.002z"></path>
        </symbol>
        <symbol id="icon-sign-out" viewBox="0 0 32 32">
            <path d="M25.292 9.292l-1.414 1.416 4.296 4.292h-14.174v2h14.172l-4.292 4.292 1.414 1.414 6.706-6.706-6.708-6.708z"></path>
            <path d="M22 30h-20v-28h20v2h2v-3c0-0.552-0.448-1-1-1v0h-22c-0.552 0-1 0.448-1 1v0 30c0 0.552 0.448 1 1 1v0h22c0.552 0 1-0.448 1-1v0-3h-2v2z"></path>
        </symbol>
        <symbol id="icon-mail" viewBox="0 0 32 32">
            <path d="M26.666 0h-21.332c-2.934 0-5.334 2.4-5.334 5.333v21.333c0 2.934 2.4 5.334 5.334 5.334h21.332c2.936 0 5.334-2.4 5.334-5.334v-21.333c0-2.934-2.398-5.333-5.334-5.333zM8 8h16c0.286 0 0.563 0.061 0.817 0.177l-8.817 10.286-8.817-10.287c0.254-0.116 0.531-0.177 0.817-0.177zM6 22v-12c0-0.042 0.002-0.084 0.004-0.125l5.864 6.842-5.8 5.8c-0.045-0.167-0.069-0.34-0.069-0.517zM24 24h-16c-0.177 0-0.35-0.024-0.517-0.069l5.691-5.691 2.826 3.297 2.826-3.297 5.691 5.691c-0.167 0.045-0.34 0.069-0.517 0.069zM26 22c0 0.177-0.024 0.35-0.069 0.517l-5.8-5.8 5.864-6.842c0.003 0.041 0.004 0.083 0.004 0.125v12z"></path>
        </symbol>
        <symbol id="icon-github" viewBox="0 0 32 32">
            <path d="M16 0.395c-8.836 0-16 7.163-16 16 0 7.069 4.585 13.067 10.942 15.182 0.8 0.148 1.094-0.347 1.094-0.77 0-0.381-0.015-1.642-0.022-2.979-4.452 0.968-5.391-1.888-5.391-1.888-0.728-1.849-1.776-2.341-1.776-2.341-1.452-0.993 0.11-0.973 0.11-0.973 1.606 0.113 2.452 1.649 2.452 1.649 1.427 2.446 3.743 1.739 4.656 1.33 0.143-1.034 0.558-1.74 1.016-2.14-3.554-0.404-7.29-1.777-7.29-7.907 0-1.747 0.625-3.174 1.649-4.295-0.166-0.403-0.714-2.030 0.155-4.234 0 0 1.344-0.43 4.401 1.64 1.276-0.355 2.645-0.532 4.005-0.539 1.359 0.006 2.729 0.184 4.008 0.539 3.054-2.070 4.395-1.64 4.395-1.64 0.871 2.204 0.323 3.831 0.157 4.234 1.026 1.12 1.647 2.548 1.647 4.295 0 6.145-3.743 7.498-7.306 7.895 0.574 0.497 1.085 1.47 1.085 2.963 0 2.141-0.019 3.864-0.019 4.391 0 0.426 0.288 0.925 1.099 0.768 6.354-2.118 10.933-8.113 10.933-15.18 0-8.837-7.164-16-16-16z"></path>
        </symbol>
        <symbol id="icon-linkedin" viewBox="0 0 32 32">
            <path d="M29 0h-26c-1.65 0-3 1.35-3 3v26c0 1.65 1.35 3 3 3h26c1.65 0 3-1.35 3-3v-26c0-1.65-1.35-3-3-3zM12 26h-4v-14h4v14zM10 10c-1.106 0-2-0.894-2-2s0.894-2 2-2c1.106 0 2 0.894 2 2s-0.894 2-2 2zM26 26h-4v-8c0-1.106-0.894-2-2-2s-2 0.894-2 2v8h-4v-14h4v2.481c0.825-1.131 2.087-2.481 3.5-2.481 2.488 0 4.5 2.238 4.5 5v9z"></path>
        </symbol>
    </defs>
</svg>
