<svg aria-hidden="true" style="position: absolute; width: 0; height: 0; overflow: hidden;" version="1.1"
    xmlns="http://www.w3.org/2000/svg"
    xmlns:xlink="http://www.w3.org/1999/xlink">
    <defs>
        <symbol id="icon-arrow" viewBox="0 0 32 32">
            <path d="M31.805 15.529l-10-10c-0.121-0.121-0.287-0.195-0.471-0.195s-0.351 0.075-0.471 0.195v0c-0.121 0.121-0.195 0.287-0.195 0.471s0.075 0.351 0.195 0.471v0l8.862 8.862h-29.057c-0 0-0 0-0 0-0.368 0-0.666 0.298-0.666 0.666 0 0 0 0 0 0v-0c0 0.369 0.298 0.667 0.667 0.667h29.057l-8.862 8.862c-0.121 0.121-0.195 0.287-0.195 0.471s0.075 0.351 0.195 0.471v0c0.13 0.13 0.301 0.195 0.471 0.195 0 0 0 0 0.001 0 0.184 0 0.35-0.075 0.471-0.195v0l10-10c0.121-0.121 0.195-0.287 0.195-0.471s-0.075-0.351-0.195-0.471v0z"></path>
        </symbol>
        <symbol id="icon-burger" viewBox="0 0 32 32">
            <path d="M4 24h24v-2.667h-24v2.667zM4 17.333h24v-2.667h-24v2.667zM4 8v2.667h24v-2.667h-24z"></path>
        </symbol>
        <symbol id="icon-close" viewBox="0 0 32 32">
            <path d="M25.333 8.547l-1.88-1.88-7.453 7.453-7.453-7.453-1.88 1.88 7.453 7.453-7.453 7.453 1.88 1.88 7.453-7.453 7.453 7.453 1.88-1.88-7.453-7.453 7.453-7.453z"></path>
        </symbol>
        <symbol id="icon-empty-favourite" viewBox="0 0 32 32">
            <path d="M16 30.22c-0.455 0-0.895-0.165-1.237-0.465-0.746-0.661-1.93-1.684-3.121-2.699l-0.523-0.435c-3.225-2.748-6.009-5.12-7.946-7.457-2.165-2.613-3.173-5.090-3.173-7.797 0-2.629 0.901-5.055 2.539-6.83 1.657-1.797 3.93-2.786 6.4-2.786 1.847 0 3.539 0.583 5.028 1.735 0.778 0.612 1.449 1.311 2.012 2.092l0.021 0.030c0.584-0.812 1.255-1.511 2.011-2.106l0.022-0.017c1.489-1.152 3.181-1.735 5.027-1.735 2.471 0 4.745 0.989 6.401 2.786 1.637 1.775 2.539 4.199 2.539 6.83 0 2.707-1.008 5.184-3.173 7.797-1.937 2.336-4.721 4.709-7.945 7.456-1.102 0.939-2.35 2.002-3.646 3.136-0.328 0.288-0.761 0.463-1.234 0.463-0.001 0-0.001 0-0.002 0h0zM8.939 3.625c-1.941 0-3.725 0.774-5.022 2.182-1.317 1.428-2.043 3.403-2.043 5.559 0 2.276 0.846 4.313 2.742 6.601 1.835 2.212 4.56 4.537 7.717 7.227l0.006 0.005c1.104 0.941 2.355 2.006 3.657 3.146 0.667-0.591 1.861-1.621 3.061-2.645l0.608-0.506c3.157-2.691 5.884-5.013 7.717-7.227 1.897-2.288 2.741-4.324 2.741-6.601 0-2.157-0.725-4.131-2.042-5.559-1.297-1.408-3.081-2.182-5.023-2.182-1.422 0-2.727 0.452-3.881 1.344-1.028 0.795-1.744 1.799-2.163 2.502-0.208 0.348-0.583 0.578-1.011 0.578-0.002 0-0.004 0-0.006 0h0c-0.002 0-0.003 0-0.005 0-0.429 0-0.803-0.23-1.008-0.573l-0.003-0.005c-0.419-0.703-1.135-1.708-2.163-2.502-1.152-0.892-2.459-1.344-3.881-1.344z"></path>
        </symbol>
        <symbol id="icon-favourite" viewBox="0 0 32 32">
            <path d="M16 30.72l-2.24-2.24c-8.32-7.36-13.76-12.32-13.76-18.4-0-4.96 3.84-8.8 8.8-8.8 2.72 0 5.44 1.28 7.2 3.36 1.76-2.080 4.48-3.36 7.2-3.36 4.96 0 8.8 3.84 8.8 8.8 0 6.080-5.44 11.040-13.76 18.4l-2.24 2.24z"></path>
        </symbol>
        <symbol id="icon-logo" viewBox="0 0 147 32">
            <path fill="none" stroke="#121d2e" style="stroke: var(--color1, #121d2e)" stroke-linejoin="miter" stroke-linecap="butt" stroke-miterlimit="4" stroke-width="1.1429" d="M147.429 0h-147.429v32h147.429v-32z"></path>
            <path fill="#02172a" style="fill: var(--color1, #121d2e)" d="M69.611 25.486h5.266v-2.373h-2.234v-13.445h2.234v-2.37h-5.266v18.187zM80.551 21.714h3.147v-11.035h4.352v-2.565h-11.851v2.565h4.352v11.035zM99.28 16.527c0.001-0.037 0.001-0.081 0.001-0.124 0-1.007-0.263-1.952-0.725-2.77l0.015 0.028c-0.464-0.806-1.129-1.451-1.928-1.877l-0.026-0.013c-0.81-0.416-1.768-0.66-2.783-0.66-1.038 0-2.016 0.255-2.875 0.706l0.034-0.016c-0.838 0.451-1.516 1.101-1.988 1.89l-0.013 0.023c-0.459 0.772-0.73 1.702-0.73 2.695 0 0.026 0 0.051 0.001 0.077l-0-0.004c-0.016 0.976 0.24 1.938 0.738 2.778 0.507 0.824 1.22 1.478 2.069 1.9l0.029 0.013c0.872 0.434 1.898 0.687 2.984 0.687 0.051 0 0.101-0.001 0.151-0.002l-0.007 0c0.11 0.008 0.239 0.013 0.368 0.013 1.553 0 2.954-0.653 3.942-1.7l0.002-0.003-1.613-1.749c-0.336 0.333-0.736 0.594-1.175 0.768-0.409 0.154-0.881 0.243-1.375 0.243-0.026 0-0.051-0-0.077-0.001l0.004 0c-0.036 0.001-0.078 0.002-0.121 0.002-0.694 0-1.339-0.211-1.873-0.573l0.012 0.008c-0.512-0.358-0.878-0.895-1.007-1.519l-0.003-0.016h7.907c0.039-0.505 0.057-0.777 0.057-0.816l0.002 0.010zM93.859 13.399c0.023-0.001 0.050-0.001 0.077-0.001 0.625 0 1.197 0.224 1.641 0.596l-0.004-0.003c0.471 0.403 0.776 0.968 0.855 1.584h-5.154c0.079-0.642 0.394-1.198 0.853-1.59l0.003-0.003c0.445-0.364 1.020-0.584 1.646-0.584 0.029 0 0.059 0 0.088 0.001l-0.004-0zM105.402 21.87c0.049 0.001 0.106 0.002 0.163 0.002 0.891 0 1.747-0.154 2.541-0.436l-0.053 0.016c0.685-0.234 1.261-0.641 1.694-1.168l0.005-0.006c0.385-0.494 0.59-1.103 0.583-1.729 0.003-0.045 0.004-0.097 0.004-0.149 0-0.627-0.23-1.201-0.609-1.641l0.003 0.003c-0.376-0.407-0.855-0.713-1.396-0.878l-0.022-0.006c-0.565-0.168-1.273-0.328-1.996-0.444l-0.103-0.014c-0.628-0.080-1.194-0.21-1.736-0.388l0.066 0.019c-0.304-0.077-0.526-0.349-0.526-0.672 0-0.005 0-0.009 0-0.014v0.001c0.015-0.314 0.209-0.579 0.482-0.697l0.005-0.002c0.456-0.209 0.957-0.302 1.457-0.272 0.015-0 0.032-0 0.049-0 1.089 0 2.11 0.288 2.992 0.793l-0.030-0.016 1.010-2.157c-0.524-0.299-1.132-0.531-1.777-0.663l-0.040-0.007c-0.663-0.154-1.424-0.243-2.205-0.243h-0c-0.047-0.001-0.102-0.002-0.157-0.002-0.875 0-1.713 0.157-2.487 0.445l0.049-0.016c-0.676 0.243-1.242 0.655-1.664 1.187l-0.006 0.008c-0.357 0.472-0.572 1.068-0.572 1.715 0 0.015 0 0.031 0 0.046l-0-0.002c-0.004 0.051-0.006 0.109-0.006 0.169 0 0.636 0.234 1.217 0.62 1.663l-0.003-0.003c0.395 0.419 0.894 0.728 1.447 0.894 0.695 0.198 1.402 0.347 2.118 0.447 0.549 0.053 1.088 0.163 1.611 0.33 0.298 0.069 0.518 0.328 0.526 0.64l0 0.001c0 0.634-0.641 0.952-1.923 0.952-0.693-0.003-1.362-0.106-1.993-0.294l0.050 0.013c-0.642-0.175-1.205-0.424-1.718-0.745l0.027 0.016-1.009 2.171c0.613 0.377 1.282 0.651 1.983 0.815 0.76 0.204 1.633 0.321 2.533 0.321 0.004 0 0.009 0 0.013 0h-0.001v-0.001zM118.711 19.072c-0.321 0.243-0.727 0.389-1.167 0.389-0.020 0-0.040-0-0.060-0.001l0.003 0c-0.024 0.002-0.052 0.003-0.080 0.003-0.344 0-0.655-0.138-0.882-0.362l0 0c-0.215-0.249-0.346-0.575-0.346-0.932 0-0.031 0.001-0.062 0.003-0.093l-0 0.004v-4.253h2.603v-2.331h-2.602v-2.547h-3.031v2.545h-1.609v2.334h1.611v4.294c-0.006 0.077-0.009 0.167-0.009 0.258 0 0.985 0.391 1.88 1.027 2.535l-0.001-0.001c0.704 0.597 1.622 0.96 2.625 0.96 0.092 0 0.183-0.003 0.273-0.009l-0.012 0.001c0.462 0.002 0.922-0.054 1.371-0.166 0.394-0.091 0.768-0.259 1.098-0.495l-0.816-2.134zM120.944 23.463h9.714v-1.749h-9.714v1.749zM137.417 25.486v-18.187h-5.246v2.37h2.215v13.445h-2.215v2.373h5.246zM0 0h52.893l8.816 16.64-8.816 15.36h-52.893v-32z"></path>
            <path fill="#fff" style="fill: var(--color2, #fff)" d="M18.357 8.114h-5.888v13.6h3.147v-3.75h2.743c0.054 0.001 0.117 0.002 0.181 0.002 1.067 0 2.084-0.218 3.007-0.613l-0.050 0.019c0.851-0.368 1.548-0.958 2.035-1.698l0.011-0.017c0.452-0.711 0.72-1.578 0.72-2.507 0-0.037-0-0.074-0.001-0.111l0 0.005c0.001-0.034 0.001-0.073 0.001-0.113 0-0.929-0.269-1.795-0.733-2.524l0.011 0.019c-0.503-0.754-1.199-1.343-2.018-1.703l-0.030-0.012c-0.871-0.379-1.885-0.6-2.951-0.6-0.065 0-0.13 0.001-0.195 0.002l0.010-0zM18.182 15.4h-2.565v-4.721h2.565c0.069-0.005 0.15-0.008 0.232-0.008 0.724 0 1.394 0.233 1.938 0.627l-0.010-0.007c0.456 0.397 0.743 0.979 0.743 1.627 0 0.046-0.001 0.091-0.004 0.136l0-0.006c0.002 0.037 0.004 0.080 0.004 0.123 0 0.645-0.286 1.223-0.739 1.614l-0.003 0.002c-0.535 0.387-1.204 0.619-1.927 0.619-0.081 0-0.161-0.003-0.241-0.009l0.011 0.001h-0.005zM29.761 12.641v-1.379h-2.895v10.453h3.031v-4.935c-0.006-0.068-0.009-0.146-0.009-0.226 0-0.754 0.283-1.442 0.749-1.962l-0.002 0.003c0.493-0.455 1.154-0.734 1.881-0.734 0.056 0 0.112 0.002 0.167 0.005l-0.008-0c0.117 0 0.343 0.013 0.68 0.039v-2.798c-0.031-0.001-0.068-0.001-0.104-0.001-0.729 0-1.424 0.143-2.059 0.403l0.036-0.013c-0.599 0.245-1.096 0.638-1.46 1.133l-0.007 0.009-0.001 0.003zM40.618 21.87c0.034 0.001 0.074 0.001 0.114 0.001 1.037 0 2.014-0.254 2.873-0.703l-0.034 0.016c0.852-0.448 1.544-1.099 2.027-1.891l0.013-0.023c0.498-0.84 0.754-1.801 0.738-2.778 0.001-0.027 0.001-0.059 0.001-0.091 0-0.991-0.273-1.919-0.749-2.711l0.013 0.024c-0.496-0.815-1.188-1.466-2.012-1.9l-0.028-0.014c-0.863-0.435-1.88-0.69-2.958-0.69s-2.095 0.255-2.996 0.707l0.039-0.018c-0.848 0.434-1.558 1.097-2.050 1.913-0.464 0.769-0.739 1.699-0.739 2.692 0 0.030 0 0.061 0.001 0.091l-0-0.005c-0.016 0.977 0.24 1.938 0.738 2.778 0.498 0.816 1.194 1.468 2.022 1.9l0.028 0.013c0.917 0.469 1.934 0.704 2.962 0.686h-0.003zM40.618 19.383c-0.023 0.001-0.050 0.001-0.078 0.001-0.725 0-1.38-0.302-1.845-0.788l-0.001-0.001c-0.472-0.515-0.761-1.205-0.761-1.962 0-0.051 0.001-0.102 0.004-0.152l-0 0.007c-0.002-0.043-0.004-0.094-0.004-0.145 0-0.757 0.289-1.447 0.763-1.965l-0.002 0.002c0.466-0.486 1.12-0.787 1.845-0.787 0.028 0 0.055 0 0.083 0.001l-0.004-0c0.025-0.001 0.054-0.001 0.083-0.001 0.721 0 1.371 0.302 1.831 0.787l0.001 0.001c0.518 0.577 0.786 1.335 0.747 2.109 0.039 0.774-0.23 1.531-0.747 2.109-0.461 0.486-1.112 0.789-1.834 0.789-0.028 0-0.057-0-0.085-0.001l0.004 0v-0.002z"></path>
        </symbol>
        <symbol id="icon-sign-out" viewBox="0 0 32 32">
            <path d="M25.292 9.292l-1.414 1.416 4.296 4.292h-14.174v2h14.172l-4.292 4.292 1.414 1.414 6.706-6.706-6.708-6.708z"></path>
            <path d="M22 30h-20v-28h20v2h2v-3c0-0.552-0.448-1-1-1v0h-22c-0.552 0-1 0.448-1 1v0 30c0 0.552 0.448 1 1 1v0h22c0.552 0 1-0.448 1-1v0-3h-2v2z"></path>
        </symbol>
        <symbol id="icon-mail" viewBox="0 0 32 32">
            <path d="M26.666 0h-21.332c-2.934 0-5.334 2.4-5.334 5.333v21.333c0 2.934 2.4 5.334 5.334 5.334h21.332c2.936 0 5.334-2.4 5.334-5.334v-21.333c0-2.934-2.398-5.333-5.334-5.333zM8 8h16c0.286 0 0.563 0.061 0.817 0.177l-8.817 10.286-8.817-10.287c0.254-0.116 0.531-0.177 0.817-0.177zM6 22v-12c0-0.042 0.002-0.084 0.004-0.125l5.864 6.842-5.8 5.8c-0.045-0.167-0.069-0.34-0.069-0.517zM24 24h-16c-0.177 0-0.35-0.024-0.517-0.069l5.691-5.691 2.826 3.297 2.826-3.297 5.691 5.691c-0.167 0.045-0.34 0.069-0.517 0.069zM26 22c0 0.177-0.024 0.35-0.069 0.517l-5.8-5.8 5.864-6.842c0.003 0.041 0.004 0.083 0.004 0.125v12z"></path>
        </symbol>
        <symbol id="icon-github" viewBox="0 0 32 32">
            <path d="M16 0.395c-8.836 0-16 7.163-16 16 0 7.069 4.585 13.067 10.942 15.182 0.8 0.148 1.094-0.347 1.094-0.77 0-0.381-0.015-1.642-0.022-2.979-4.452 0.968-5.391-1.888-5.391-1.888-0.728-1.849-1.776-2.341-1.776-2.341-1.452-0.993 0.11-0.973 0.11-0.973 1.606 0.113 2.452 1.649 2.452 1.649 1.427 2.446 3.743 1.739 4.656 1.33 0.143-1.034 0.558-1.74 1.016-2.14-3.554-0.404-7.29-1.777-7.29-7.907 0-1.747 0.625-3.174 1.649-4.295-0.166-0.403-0.714-2.030 0.155-4.234 0 0 1.344-0.43 4.401 1.64 1.276-0.355 2.645-0.532 4.005-0.539 1.359 0.006 2.729 0.184 4.008 0.539 3.054-2.070 4.395-1.64 4.395-1.64 0.871 2.204 0.323 3.831 0.157 4.234 1.026 1.12 1.647 2.548 1.647 4.295 0 6.145-3.743 7.498-7.306 7.895 0.574 0.497 1.085 1.47 1.085 2.963 0 2.141-0.019 3.864-0.019 4.391 0 0.426 0.288 0.925 1.099 0.768 6.354-2.118 10.933-8.113 10.933-15.18 0-8.837-7.164-16-16-16z"></path>
        </symbol>
        <symbol id="icon-linkedin" viewBox="0 0 32 32">
            <path d="M29 0h-26c-1.65 0-3 1.35-3 3v26c0 1.65 1.35 3 3 3h26c1.65 0 3-1.35 3-3v-26c0-1.65-1.35-3-3-3zM12 26h-4v-14h4v14zM10 10c-1.106 0-2-0.894-2-2s0.894-2 2-2c1.106 0 2 0.894 2 2s-0.894 2-2 2zM26 26h-4v-8c0-1.106-0.894-2-2-2s-2 0.894-2 2v8h-4v-14h4v2.481c0.825-1.131 2.087-2.481 3.5-2.481 2.488 0 4.5 2.238 4.5 5v9z"></path>
        </symbol>
        <symbol id="google" viewBox="0 0 18 18">
            <path d="M17.8555 7.33402C17.9355 7.33402 18.0004 7.39888 18.0004 7.47889V9C18.0004 9.56932 17.9475 10.126 17.8461 10.666C17.0615 14.8604 13.3662 18.0303 8.9369 17.9998C3.96689 17.9655 -0.0106149 13.9498 0.000388988 8.97972C0.0113226 4.01857 4.03664 0 9.00036 0C11.4322 0 13.6387 0.964758 15.2587 2.53188C15.3172 2.58845 15.3187 2.68168 15.2611 2.7392L13.1092 4.89115C13.0538 4.94656 12.9643 4.948 12.9075 4.89396C11.8907 3.92614 10.5151 3.33197 9.00036 3.33197C5.87247 3.33197 3.3537 5.83284 3.33246 8.96066C3.31112 12.109 5.857 14.668 9.00036 14.668C11.5508 14.668 13.7079 12.9832 14.4192 10.666H9.14523C9.06522 10.666 9.00036 10.6011 9.00036 10.5211V7.47886C9.00036 7.39884 9.06522 7.33398 9.14523 7.33398H17.8555V7.33402Z" fill="#2196F3"/>
            <path d="M17.8551 7.33405H16.7686C16.8486 7.33405 16.9135 7.39891 16.9135 7.47892V9.00003C16.9135 9.56935 16.8606 10.126 16.7592 10.666C16.0107 14.6676 12.613 17.7365 8.45618 17.9838C8.61522 17.9932 8.77533 17.9987 8.93655 17.9998C13.3659 18.0303 17.0611 14.8604 17.8457 10.666C17.9471 10.126 18 9.56935 18 9.00003V7.47889C18 7.39891 17.9351 7.33405 17.8551 7.33405Z" fill="#1E88E5"/>
            <path d="M3.85174 6.62632L1.11841 4.65138C2.65185 1.87787 5.60681 0 9.00002 0C11.4319 0 13.6384 0.964758 15.2583 2.53188C15.3168 2.58845 15.3183 2.68168 15.2608 2.7392L13.1088 4.89115C13.0535 4.94645 12.964 4.94817 12.9074 4.89424C11.8906 3.92625 10.5149 3.332 9.00002 3.332C6.71725 3.332 4.74956 4.68144 3.85174 6.62632Z" fill="#F44336"/>
            <path d="M3.06262 6.05616L3.8517 6.62629C4.6712 4.85111 6.38218 3.57262 8.41035 3.36291C8.4256 3.36126 8.44026 3.35925 8.4558 3.35777C8.27731 3.34083 8.09644 3.33197 7.91348 3.33197C5.85132 3.33197 4.05413 4.41911 3.06262 6.05616Z" fill="#E53935"/>
            <path d="M14.1717 2.53188C14.2302 2.58845 14.2318 2.68168 14.1742 2.73923L12.4275 4.4859C12.5949 4.61317 12.7551 4.74929 12.9071 4.894C12.9638 4.94803 13.0534 4.94659 13.1088 4.89118L15.2607 2.73923C15.3183 2.68168 15.3167 2.58848 15.2583 2.53188C13.6383 0.964758 11.4318 0 8.99994 0C8.81745 0 8.63639 0.00608203 8.4566 0.0168047C10.6729 0.148816 12.6733 1.08232 14.1717 2.53188Z" fill="#E53935"/>
            <path d="M15.6021 15.1164C13.9585 16.89 11.6088 18 9.00003 18C5.47646 18 2.42588 15.9751 0.948547 13.0252L3.73907 11.1129C4.57646 13.1965 6.61658 14.668 9.00003 14.668C10.4958 14.668 11.8561 14.0885 12.8688 13.1418L15.6021 15.1164Z" fill="#4CAF50"/>
            <path d="M3.73913 11.1129L2.91626 11.6768C3.87198 13.4572 5.7514 14.668 7.91355 14.668C8.09639 14.668 8.27713 14.659 8.45555 14.6421C6.30929 14.4375 4.51193 13.0359 3.73913 11.1129Z" fill="#43A047"/>
            <path d="M9.00003 18C11.6088 18 13.9585 16.89 15.6021 15.1164L14.9326 14.6328C13.3894 16.5533 11.0744 17.8274 8.45813 17.9836C8.63743 17.9943 8.81806 18 9.00003 18Z" fill="#43A047"/>
            <path d="M3.332 8.99998C3.332 9.74677 3.4765 10.4599 3.73908 11.1129L0.948516 13.0252C0.341543 11.8141 0 10.4469 0 8.99998C0 7.42273 0.405633 5.94034 1.11839 4.65137L3.85172 6.6263C3.51816 7.3481 3.332 8.15251 3.332 8.99998Z" fill="#FFC107"/>
            <path d="M2.91616 11.6768L3.73903 11.1129C3.47645 10.4599 3.33195 9.74676 3.33195 8.99997C3.33195 8.15249 3.51811 7.34808 3.85167 6.62628L3.06259 6.05615C2.55019 6.90219 2.2528 7.89497 2.24556 8.96066C2.23888 9.94342 2.4824 10.8688 2.91616 11.6768Z" fill="#FFB300"/>
        </symbol>
    </defs>
</svg>
