<svg aria-hidden="true" style="position: absolute; width: 0; height: 0; overflow: hidden;" version="1.1" xmlns="http://www.w3.org/2000/svg" xmlns:xlink="http://www.w3.org/1999/xlink">
<defs>
<symbol id="icon-favorite-heart-button" viewBox="0 0 32 32">
<path d="M16 30.72l-2.24-2.24c-8.32-7.36-13.76-12.32-13.76-18.4 0-4.96 3.84-8.8 8.8-8.8 2.72 0 5.44 1.28 7.2 3.36 1.76-2.080 4.48-3.36 7.2-3.36 4.96 0 8.8 3.84 8.8 8.8 0 6.080-5.44 11.040-13.76 18.4l-2.24 2.24z"></path>
</symbol>
<symbol id="icon-close-24px" viewBox="0 0 32 32">
<path d="M25.333 8.547l-1.88-1.88-7.453 7.453-7.453-7.453-1.88 1.88 7.453 7.453-7.453 7.453 1.88 1.88 7.453-7.453 7.453 7.453 1.88-1.88-7.453-7.453 7.453-7.453z"></path>
</symbol>
<symbol id="icon-arrow" viewBox="0 0 32 32">
<path d="M31.805 15.529l-10-10c-0.26-0.26-0.682-0.26-0.943 0s-0.26 0.682 0 0.943l8.862 8.862h-29.057c-0.368 0-0.667 0.298-0.667 0.667s0.298 0.667 0.667 0.667h29.057l-8.862 8.862c-0.26 0.26-0.26 0.682 0 0.943 0.13 0.13 0.301 0.195 0.471 0.195s0.341-0.065 0.471-0.195l10-10c0.26-0.26 0.26-0.682 0-0.943z"></path>
</symbol>
<symbol id="icon-sign-out" viewBox="0 0 32 32">
<path d="M25.293 9.293l-1.414 1.414 4.293 4.293h-14.172v2h14.172l-4.293 4.293 1.414 1.414 6.707-6.707-6.707-6.707z"></path>
<path d="M22 30h-20v-28h20v2h2v-3c0-0.553-0.447-1-1-1h-22c-0.553 0-1 0.447-1 1v30c0 0.553 0.447 1 1 1h22c0.553 0 1-0.447 1-1v-3h-2v2z"></path>
</symbol>
<symbol id="icon-menu-24px" viewBox="0 0 32 32">
<path d="M4 24h24v-2.667h-24v2.667zM4 17.333h24v-2.667h-24v2.667zM4 8v2.667h24v-2.667h-24z"></path>
</symbol>
<symbol id="icon-heart" viewBox="0 0 32 32">
<path d="M16 30.22c-0.456 0-0.895-0.165-1.237-0.465-1.293-1.13-2.539-2.193-3.639-3.13l-0.006-0.005c-3.224-2.747-6.008-5.12-7.945-7.457-2.165-2.613-3.174-5.090-3.174-7.796 0-2.629 0.902-5.055 2.539-6.831 1.657-1.797 3.929-2.786 6.401-2.786 1.847 0 3.539 0.584 5.028 1.736 0.751 0.581 1.433 1.293 2.033 2.123 0.6-0.83 1.281-1.541 2.033-2.123 1.489-1.152 3.181-1.736 5.028-1.736 2.471 0 4.744 0.99 6.401 2.786 1.637 1.776 2.538 4.201 2.538 6.831 0 2.706-1.008 5.184-3.174 7.796-1.937 2.337-4.721 4.71-7.944 7.457-1.102 0.939-2.35 2.002-3.646 3.136-0.342 0.299-0.781 0.464-1.237 0.464zM8.939 3.624c-1.942 0-3.725 0.775-5.023 2.182-1.317 1.428-2.042 3.403-2.042 5.56 0 2.276 0.846 4.312 2.743 6.6 1.833 2.212 4.56 4.536 7.717 7.227l0.006 0.005c1.104 0.941 2.355 2.007 3.657 3.146 1.31-1.141 2.563-2.209 3.669-3.151 3.157-2.691 5.884-5.014 7.717-7.226 1.897-2.289 2.742-4.324 2.742-6.6 0-2.157-0.725-4.132-2.042-5.56-1.297-1.407-3.081-2.182-5.023-2.182-1.422 0-2.728 0.452-3.881 1.344-1.028 0.795-1.743 1.8-2.163 2.503-0.216 0.362-0.596 0.577-1.016 0.577s-0.801-0.216-1.016-0.577c-0.42-0.703-1.135-1.708-2.163-2.503-1.153-0.892-2.459-1.344-3.881-1.344z"></path>
</symbol>
<symbol id="icon-close" viewBox="0 0 32 32">
<path fill="#fff" style="fill: var(--color1, #fff)" d="M32 16c0 8.837-7.163 16-16 16s-16-7.163-16-16c0-8.837 7.163-16 16-16s16 7.163 16 16z"></path>
<path fill="none" stroke="#000" style="stroke: var(--color2, #000)" stroke-linejoin="miter" stroke-linecap="butt" stroke-miterlimit="4" stroke-width="1.0667" d="M31.467 16c0 8.542-6.925 15.467-15.467 15.467s-15.467-6.925-15.467-15.467c0-8.542 6.925-15.467 15.467-15.467s15.467 6.925 15.467 15.467z"></path>
<path fill="#000" style="fill: var(--color2, #000)" d="M22.4 10.782l-1.182-1.182-4.685 4.685-4.685-4.685-1.182 1.182 4.685 4.685-4.685 4.685 1.182 1.182 4.685-4.685 4.685 4.685 1.182-1.182-4.685-4.685 4.685-4.685z"></path>
</symbol>
</defs>
</svg>
