<svg width="129" height="28" fill="none" xmlns="http://www.w3.org/2000/svg"><g clip-path="url(#a)"><path d="M129 0H0v28h129V0Z" stroke="#121D2E"/><path fill-rule="evenodd" clip-rule="evenodd" d="M60.91 22.3h4.608v-2.076h-1.955V8.46h1.955V6.386H60.91V22.3Zm9.572-3.3h2.754V9.344h3.808V7.1h-10.37v2.244h3.808V19Zm16.388-4.539a4.944 4.944 0 0 0-.62-2.508 4.221 4.221 0 0 0-1.71-1.653 5.421 5.421 0 0 0-4.921.026A4.467 4.467 0 0 0 77.868 12a4.674 4.674 0 0 0-.638 2.422c-.014.854.21 1.696.646 2.431a4.422 4.422 0 0 0 1.836 1.674 5.97 5.97 0 0 0 2.737.6 4.743 4.743 0 0 0 3.774-1.479l-1.411-1.53c-.294.291-.644.52-1.028.672a3.51 3.51 0 0 1-1.267.212 2.927 2.927 0 0 1-1.734-.493 2.154 2.154 0 0 1-.884-1.343h6.919c.034-.442.05-.68.05-.714l.002.009Zm-4.743-2.737a2.236 2.236 0 0 1 1.5.518c.412.353.679.847.748 1.386h-4.51a2.17 2.17 0 0 1 .749-1.394 2.284 2.284 0 0 1 1.513-.51Zm10.1 7.412a6.631 6.631 0 0 0 2.32-.366 3.255 3.255 0 0 0 1.487-1.028c.337-.432.516-.965.51-1.513a2.2 2.2 0 0 0-.527-1.564 2.76 2.76 0 0 0-1.241-.773 15.686 15.686 0 0 0-1.836-.4 8.114 8.114 0 0 1-1.462-.323.606.606 0 0 1-.46-.6.7.7 0 0 1 .426-.612c.399-.183.837-.264 1.275-.238a5.278 5.278 0 0 1 2.635.68l.884-1.887a5.405 5.405 0 0 0-1.59-.586 8.914 8.914 0 0 0-1.93-.213 6.246 6.246 0 0 0-2.27.374 3.225 3.225 0 0 0-1.461 1.045 2.5 2.5 0 0 0-.5 1.539 2.223 2.223 0 0 0 .535 1.6c.346.367.782.637 1.266.782.608.173 1.227.304 1.853.391.48.046.952.143 1.41.289a.59.59 0 0 1 .46.561c0 .555-.561.833-1.683.833a6.198 6.198 0 0 1-1.7-.246 5.555 5.555 0 0 1-1.48-.638l-.883 1.9c.536.33 1.122.57 1.735.713a8.88 8.88 0 0 0 2.227.281v-.001Zm11.645-2.448a1.7 1.7 0 0 1-1.071.34 1.1 1.1 0 0 1-.842-.314 1.25 1.25 0 0 1-.3-.893V12.1h2.278v-2.04h-2.277V7.831h-2.652v2.227H97.6V12.1h1.41v3.757a3.187 3.187 0 0 0 .89 2.443 3.56 3.56 0 0 0 2.525.833c.404.002.807-.047 1.2-.145.345-.08.672-.227.961-.433l-.714-1.867Zm1.954 3.842h8.5V19h-8.5v1.53Zm14.414 1.77V6.386h-4.59V8.46h1.938v11.764h-1.938V22.3h4.59ZM0 0h46.281l7.714 14.56L46.281 28H0V0Z" fill="#121D2E"/><path fill-rule="evenodd" clip-rule="evenodd" d="M16.062 7.1H10.91V19h2.754v-3.281h2.4a6.699 6.699 0 0 0 2.746-.518A4.006 4.006 0 0 0 20.6 13.7a4.133 4.133 0 0 0 .629-2.286 4.122 4.122 0 0 0-.63-2.291 4.081 4.081 0 0 0-1.792-1.5 6.614 6.614 0 0 0-2.745-.523Zm-.153 6.375h-2.244V9.344h2.244a2.893 2.893 0 0 1 1.89.536 1.884 1.884 0 0 1 .647 1.538 1.865 1.865 0 0 1-.646 1.522 2.893 2.893 0 0 1-1.887.535h-.004Zm10.132-2.414V9.854h-2.533V19h2.652v-4.318a2.576 2.576 0 0 1 .646-1.912 2.43 2.43 0 0 1 1.785-.638c.102 0 .3.011.595.034V9.718a4.764 4.764 0 0 0-1.861.34 2.949 2.949 0 0 0-1.283 1l-.001.003Zm9.5 8.075a5.435 5.435 0 0 0 2.584-.6 4.5 4.5 0 0 0 1.785-1.674c.436-.735.66-1.576.646-2.431A4.615 4.615 0 0 0 39.913 12a4.5 4.5 0 0 0-1.785-1.674 5.852 5.852 0 0 0-5.176 0c-.742.38-1.363.96-1.794 1.674a4.613 4.613 0 0 0-.646 2.431c-.014.855.21 1.696.646 2.431a4.485 4.485 0 0 0 1.794 1.674c.802.41 1.692.616 2.592.6h-.003Zm0-2.176a2.235 2.235 0 0 1-1.683-.689 2.546 2.546 0 0 1-.663-1.844 2.547 2.547 0 0 1 .663-1.844 2.235 2.235 0 0 1 1.683-.688 2.208 2.208 0 0 1 1.675.688c.453.505.688 1.168.654 1.845.034.677-.201 1.34-.654 1.845a2.21 2.21 0 0 1-1.675.689v-.002Z" fill="#fff"/></g><defs><clipPath id="a"><path fill="#fff" d="M0 0h129v28H0z"/></clipPath></defs></svg>