<svg aria-hidden="true" style="position: absolute; width: 0; height: 0; overflow: hidden;" version="1.1"
    xmlns="http://www.w3.org/2000/svg"
    xmlns:xlink="http://www.w3.org/1999/xlink">
    <defs>
        <symbol id="icons" viewBox="0 0 32 32">
            <path fill="#fff" style="fill: var(--color2, #fff)" d="M18.357 8.114h-5.888v13.6h3.147v-3.75h2.743c0.054 0.001 0.117 0.002 0.181 0.002 1.067 0 2.084-0.218 3.007-0.613l-0.050 0.019c0.851-0.368 1.548-0.958 2.035-1.698l0.011-0.017c0.452-0.711 0.72-1.578 0.72-2.507 0-0.037-0-0.074-0.001-0.111l0 0.005c0.001-0.034 0.001-0.073 0.001-0.113 0-0.929-0.269-1.795-0.733-2.524l0.011 0.019c-0.503-0.754-1.199-1.343-2.018-1.703l-0.030-0.012c-0.871-0.379-1.885-0.6-2.951-0.6-0.065 0-0.13 0.001-0.195 0.002l0.010-0zM18.182 15.4h-2.565v-4.721h2.565c0.069-0.005 0.15-0.008 0.232-0.008 0.724 0 1.394 0.233 1.938 0.627l-0.010-0.007c0.456 0.397 0.743 0.979 0.743 1.627 0 0.046-0.001 0.091-0.004 0.136l0-0.006c0.002 0.037 0.004 0.080 0.004 0.123 0 0.645-0.286 1.223-0.739 1.614l-0.003 0.002c-0.535 0.387-1.204 0.619-1.927 0.619-0.081 0-0.161-0.003-0.241-0.009l0.011 0.001h-0.005zM29.761 12.641v-1.379h-2.895v10.453h3.031v-4.935c-0.006-0.068-0.009-0.146-0.009-0.226 0-0.754 0.283-1.442 0.749-1.962l-0.002 0.003c0.493-0.455 1.154-0.734 1.881-0.734 0.056 0 0.112 0.002 0.167 0.005l-0.008-0c0.117 0 0.343 0.013 0.68 0.039v-2.798c-0.031-0.001-0.068-0.001-0.104-0.001-0.729 0-1.424 0.143-2.059 0.403l0.036-0.013c-0.599 0.245-1.096 0.638-1.46 1.133l-0.007 0.009-0.001 0.003zM40.618 21.87c0.034 0.001 0.074 0.001 0.114 0.001 1.037 0 2.014-0.254 2.873-0.703l-0.034 0.016c0.852-0.448 1.544-1.099 2.027-1.891l0.013-0.023c0.498-0.84 0.754-1.801 0.738-2.778 0.001-0.027 0.001-0.059 0.001-0.091 0-0.991-0.273-1.919-0.749-2.711l0.013 0.024c-0.496-0.815-1.188-1.466-2.012-1.9l-0.028-0.014c-0.863-0.435-1.88-0.69-2.958-0.69s-2.095 0.255-2.996 0.707l0.039-0.018c-0.848 0.434-1.558 1.097-2.050 1.913-0.464 0.769-0.739 1.699-0.739 2.692 0 0.030 0 0.061 0.001 0.091l-0-0.005c-0.016 0.977 0.24 1.938 0.738 2.778 0.498 0.816 1.194 1.468 2.022 1.9l0.028 0.013c0.917 0.469 1.934 0.704 2.962 0.686h-0.003zM40.618 19.383c-0.023 0.001-0.050 0.001-0.078 0.001-0.725 0-1.38-0.302-1.845-0.788l-0.001-0.001c-0.472-0.515-0.761-1.205-0.761-1.962 0-0.051 0.001-0.102 0.004-0.152l-0 0.007c-0.002-0.043-0.004-0.094-0.004-0.145 0-0.757 0.289-1.447 0.763-1.965l-0.002 0.002c0.466-0.486 1.12-0.787 1.845-0.787 0.028 0 0.055 0 0.083 0.001l-0.004-0c0.025-0.001 0.054-0.001 0.083-0.001 0.721 0 1.371 0.302 1.831 0.787l0.001 0.001c0.518 0.577 0.786 1.335 0.747 2.109 0.039 0.774-0.23 1.531-0.747 2.109-0.461 0.486-1.112 0.789-1.834 0.789-0.028 0-0.057-0-0.085-0.001l0.004 0v-0.002z"></path>
        </symbol>
        <symbol id="icon-logo" viewBox="0 0 147 32">
            <path fill="none" stroke="#121d2e" style="stroke: var(--color1, #121d2e)" stroke-linejoin="miter" stroke-linecap="butt" stroke-miterlimit="4" stroke-width="1.1429" d="M147.429 0h-147.429v32h147.429v-32z"></path>
            <path fill="#121d2e" style="fill: var(--color1, #121d2e)" d="M69.611 25.486h5.266v-2.373h-2.234v-13.445h2.234v-2.37h-5.266v18.187zM80.551 21.714h3.147v-11.035h4.352v-2.565h-11.851v2.565h4.352v11.035zM99.28 16.527c0.001-0.037 0.001-0.081 0.001-0.124 0-1.007-0.263-1.952-0.725-2.77l0.015 0.028c-0.464-0.806-1.129-1.451-1.928-1.877l-0.026-0.013c-0.81-0.416-1.768-0.66-2.783-0.66-1.038 0-2.016 0.255-2.875 0.706l0.034-0.016c-0.838 0.451-1.516 1.101-1.988 1.89l-0.013 0.023c-0.459 0.772-0.73 1.702-0.73 2.695 0 0.026 0 0.051 0.001 0.077l-0-0.004c-0.016 0.976 0.24 1.938 0.738 2.778 0.507 0.824 1.22 1.478 2.069 1.9l0.029 0.013c0.872 0.434 1.898 0.687 2.984 0.687 0.051 0 0.101-0.001 0.151-0.002l-0.007 0c0.11 0.008 0.239 0.013 0.368 0.013 1.553 0 2.954-0.653 3.942-1.7l0.002-0.003-1.613-1.749c-0.336 0.333-0.736 0.594-1.175 0.768-0.409 0.154-0.881 0.243-1.375 0.243-0.026 0-0.051-0-0.077-0.001l0.004 0c-0.036 0.001-0.078 0.002-0.121 0.002-0.694 0-1.339-0.211-1.873-0.573l0.012 0.008c-0.512-0.358-0.878-0.895-1.007-1.519l-0.003-0.016h7.907c0.039-0.505 0.057-0.777 0.057-0.816l0.002 0.010zM93.859 13.399c0.023-0.001 0.050-0.001 0.077-0.001 0.625 0 1.197 0.224 1.641 0.596l-0.004-0.003c0.471 0.403 0.776 0.968 0.855 1.584h-5.154c0.079-0.642 0.394-1.198 0.853-1.59l0.003-0.003c0.445-0.364 1.020-0.584 1.646-0.584 0.029 0 0.059 0 0.088 0.001l-0.004-0zM105.402 21.87c0.049 0.001 0.106 0.002 0.163 0.002 0.891 0 1.747-0.154 2.541-0.436l-0.053 0.016c0.685-0.234 1.261-0.641 1.694-1.168l0.005-0.006c0.385-0.494 0.59-1.103 0.583-1.729 0.003-0.045 0.004-0.097 0.004-0.149 0-0.627-0.23-1.201-0.609-1.641l0.003 0.003c-0.376-0.407-0.855-0.713-1.396-0.878l-0.022-0.006c-0.565-0.168-1.273-0.328-1.996-0.444l-0.103-0.014c-0.628-0.080-1.194-0.21-1.736-0.388l0.066 0.019c-0.304-0.077-0.526-0.349-0.526-0.672 0-0.005 0-0.009 0-0.014v0.001c0.015-0.314 0.209-0.579 0.482-0.697l0.005-0.002c0.456-0.209 0.957-0.302 1.457-0.272 0.015-0 0.032-0 0.049-0 1.089 0 2.11 0.288 2.992 0.793l-0.030-0.016 1.010-2.157c-0.524-0.299-1.132-0.531-1.777-0.663l-0.040-0.007c-0.663-0.154-1.424-0.243-2.205-0.243h-0c-0.047-0.001-0.102-0.002-0.157-0.002-0.875 0-1.713 0.157-2.487 0.445l0.049-0.016c-0.676 0.243-1.242 0.655-1.664 1.187l-0.006 0.008c-0.357 0.472-0.572 1.068-0.572 1.715 0 0.015 0 0.031 0 0.046l-0-0.002c-0.004 0.051-0.006 0.109-0.006 0.169 0 0.636 0.234 1.217 0.62 1.663l-0.003-0.003c0.395 0.419 0.894 0.728 1.447 0.894 0.695 0.198 1.402 0.347 2.118 0.447 0.549 0.053 1.088 0.163 1.611 0.33 0.298 0.069 0.518 0.328 0.526 0.64l0 0.001c0 0.634-0.641 0.952-1.923 0.952-0.693-0.003-1.362-0.106-1.993-0.294l0.050 0.013c-0.642-0.175-1.205-0.424-1.718-0.745l0.027 0.016-1.009 2.171c0.613 0.377 1.282 0.651 1.983 0.815 0.76 0.204 1.633 0.321 2.533 0.321 0.004 0 0.009 0 0.013 0h-0.001v-0.001zM118.711 19.072c-0.321 0.243-0.727 0.389-1.167 0.389-0.020 0-0.040-0-0.060-0.001l0.003 0c-0.024 0.002-0.052 0.003-0.080 0.003-0.344 0-0.655-0.138-0.882-0.362l0 0c-0.215-0.249-0.346-0.575-0.346-0.932 0-0.031 0.001-0.062 0.003-0.093l-0 0.004v-4.253h2.603v-2.331h-2.602v-2.547h-3.031v2.545h-1.609v2.334h1.611v4.294c-0.006 0.077-0.009 0.167-0.009 0.258 0 0.985 0.391 1.88 1.027 2.535l-0.001-0.001c0.704 0.597 1.622 0.96 2.625 0.96 0.092 0 0.183-0.003 0.273-0.009l-0.012 0.001c0.462 0.002 0.922-0.054 1.371-0.166 0.394-0.091 0.768-0.259 1.098-0.495l-0.816-2.134zM120.944 23.463h9.714v-1.749h-9.714v1.749zM137.417 25.486v-18.187h-5.246v2.37h2.215v13.445h-2.215v2.373h5.246zM0 0h52.893l8.816 16.64-8.816 15.36h-52.893v-32z"></path>
            <path fill="#fff" style="fill: var(--color2, #fff)" d="M18.357 8.114h-5.888v13.6h3.147v-3.75h2.743c0.054 0.001 0.117 0.002 0.181 0.002 1.067 0 2.084-0.218 3.007-0.613l-0.050 0.019c0.851-0.368 1.548-0.958 2.035-1.698l0.011-0.017c0.452-0.711 0.72-1.578 0.72-2.507 0-0.037-0-0.074-0.001-0.111l0 0.005c0.001-0.034 0.001-0.073 0.001-0.113 0-0.929-0.269-1.795-0.733-2.524l0.011 0.019c-0.503-0.754-1.199-1.343-2.018-1.703l-0.030-0.012c-0.871-0.379-1.885-0.6-2.951-0.6-0.065 0-0.13 0.001-0.195 0.002l0.010-0zM18.182 15.4h-2.565v-4.721h2.565c0.069-0.005 0.15-0.008 0.232-0.008 0.724 0 1.394 0.233 1.938 0.627l-0.010-0.007c0.456 0.397 0.743 0.979 0.743 1.627 0 0.046-0.001 0.091-0.004 0.136l0-0.006c0.002 0.037 0.004 0.080 0.004 0.123 0 0.645-0.286 1.223-0.739 1.614l-0.003 0.002c-0.535 0.387-1.204 0.619-1.927 0.619-0.081 0-0.161-0.003-0.241-0.009l0.011 0.001h-0.005zM29.761 12.641v-1.379h-2.895v10.453h3.031v-4.935c-0.006-0.068-0.009-0.146-0.009-0.226 0-0.754 0.283-1.442 0.749-1.962l-0.002 0.003c0.493-0.455 1.154-0.734 1.881-0.734 0.056 0 0.112 0.002 0.167 0.005l-0.008-0c0.117 0 0.343 0.013 0.68 0.039v-2.798c-0.031-0.001-0.068-0.001-0.104-0.001-0.729 0-1.424 0.143-2.059 0.403l0.036-0.013c-0.599 0.245-1.096 0.638-1.46 1.133l-0.007 0.009-0.001 0.003zM40.618 21.87c0.034 0.001 0.074 0.001 0.114 0.001 1.037 0 2.014-0.254 2.873-0.703l-0.034 0.016c0.852-0.448 1.544-1.099 2.027-1.891l0.013-0.023c0.498-0.84 0.754-1.801 0.738-2.778 0.001-0.027 0.001-0.059 0.001-0.091 0-0.991-0.273-1.919-0.749-2.711l0.013 0.024c-0.496-0.815-1.188-1.466-2.012-1.9l-0.028-0.014c-0.863-0.435-1.88-0.69-2.958-0.69s-2.095 0.255-2.996 0.707l0.039-0.018c-0.848 0.434-1.558 1.097-2.050 1.913-0.464 0.769-0.739 1.699-0.739 2.692 0 0.030 0 0.061 0.001 0.091l-0-0.005c-0.016 0.977 0.24 1.938 0.738 2.778 0.498 0.816 1.194 1.468 2.022 1.9l0.028 0.013c0.917 0.469 1.934 0.704 2.962 0.686h-0.003zM40.618 19.383c-0.023 0.001-0.050 0.001-0.078 0.001-0.725 0-1.38-0.302-1.845-0.788l-0.001-0.001c-0.472-0.515-0.761-1.205-0.761-1.962 0-0.051 0.001-0.102 0.004-0.152l-0 0.007c-0.002-0.043-0.004-0.094-0.004-0.145 0-0.757 0.289-1.447 0.763-1.965l-0.002 0.002c0.466-0.486 1.12-0.787 1.845-0.787 0.028 0 0.055 0 0.083 0.001l-0.004-0c0.025-0.001 0.054-0.001 0.083-0.001 0.721 0 1.371 0.302 1.831 0.787l0.001 0.001c0.518 0.577 0.786 1.335 0.747 2.109 0.039 0.774-0.23 1.531-0.747 2.109-0.461 0.486-1.112 0.789-1.834 0.789-0.028 0-0.057-0-0.085-0.001l0.004 0v-0.002z"></path>
        </symbol>
    </defs>
</svg>
